<svg xmlns="http://www.w3.org/2000/svg" xmlns:xlink="http://www.w3.org/1999/xlink" width="194" height="26" viewBox="0 0 194 26">
  <defs>
    <filter id="Codenburg" x="37.039" y="0" width="102" height="26" filterUnits="userSpaceOnUse">
      <feOffset dy="1" input="SourceAlpha"/>
      <feGaussianBlur stdDeviation="0.5" result="blur"/>
      <feFlood flood-color="#b7b7b7"/>
      <feComposite operator="in" in2="blur"/>
      <feComposite in="SourceGraphic"/>
    </filter>
  </defs>
  <g id="Group_252" data-name="Group 252" transform="translate(-440 -46.5)">
    <g id="Group_248" data-name="Group 248" transform="translate(274.539 23)">
      <g transform="matrix(1, 0, 0, 1, 165.46, 23.5)" filter="url(#Codenburg)">
        <text id="Codenburg-2" data-name="Codenburg" transform="translate(38.54 18.5)" fill="#2e2e2e" font-size="18" font-family="Lexend-Medium, Lexend" font-weight="500"><tspan x="0" y="0">Codenburg</tspan></text>
      </g>
      <g id="layers-fill" transform="translate(165.461 22.5)">
        <path id="Path_1" data-name="Path 1" d="M13.141,1.6a.846.846,0,0,1,.8,0l12.693,6.77a.846.846,0,0,1,0,1.493l-12.693,6.77a.846.846,0,0,1-.8,0L.448,9.862a.846.846,0,0,1,0-1.493Z" transform="translate(0 0)" fill="#1455fe"/>
        <path id="Path_2" data-name="Path 2" d="M3.6,8.567.448,10.246a.846.846,0,0,0,0,1.493l12.693,6.77a.846.846,0,0,0,.8,0l12.693-6.77a.846.846,0,0,0,0-1.493L23.482,8.567l-8.75,4.664a2.539,2.539,0,0,1-2.386,0L3.6,8.567Z" transform="translate(0 4.893)" fill="#65a3e8"/>
      </g>
    </g>
    <rect id="Rectangle_851" data-name="Rectangle 851" width="49" height="16" rx="2" transform="translate(585 47)" fill="rgba(252,195,31,0.31)"/>
    <text id="Career" transform="translate(590 59)" fill="#fcc31e" font-size="12" font-family="Lexend-Light, Lexend" font-weight="300"><tspan x="0" y="0">Career</tspan></text>
  </g>
</svg>
