<svg xmlns="http://www.w3.org/2000/svg" width="12" height="16" viewBox="0 0 12 16">
  <path id="file-earmark-bar-graph-fill" d="M9.293,0H4A2,2,0,0,0,2,2V14a2,2,0,0,0,2,2h8a2,2,0,0,0,2-2V4.707A1,1,0,0,0,13.707,4L10,.293A1,1,0,0,0,9.293,0ZM9.5,3.5v-2l3,3h-2A1,1,0,0,1,9.5,3.5Zm.5,10v-6a.5.5,0,0,1,.5-.5h1a.5.5,0,0,1,.5.5v6a.5.5,0,0,1-.5.5h-1A.5.5,0,0,1,10,13.5ZM7.5,14a.5.5,0,0,1-.5-.5v-4A.5.5,0,0,1,7.5,9h1a.5.5,0,0,1,.5.5v4a.5.5,0,0,1-.5.5Zm-3,0a.5.5,0,0,1-.5-.5v-2a.5.5,0,0,1,.5-.5h1a.5.5,0,0,1,.5.5v2a.5.5,0,0,1-.5.5Z" transform="translate(-2)" fill="#7E7E7E"/>
</svg>
