<svg xmlns="http://www.w3.org/2000/svg" width="16" height="16" viewBox="0 0 16 16">
  <path id="globe" d="M0,8a8,8,0,1,1,8,8A8,8,0,0,1,0,8ZM7.5,1.077A3.519,3.519,0,0,0,5.613,2.932,7.97,7.97,0,0,0,5.145,4H7.5V1.077ZM4.09,4a9.267,9.267,0,0,1,.64-1.539,6.7,6.7,0,0,1,.6-.933A7.025,7.025,0,0,0,2.255,4ZM3.508,7.5A13.7,13.7,0,0,1,3.82,5H1.674a6.958,6.958,0,0,0-.656,2.5h2.49ZM4.847,5a12.5,12.5,0,0,0-.338,2.5H7.5V5ZM8.5,5V7.5h2.99A12.5,12.5,0,0,0,11.153,5ZM4.51,8.5A12.5,12.5,0,0,0,4.847,11H7.5V8.5Zm3.99,0V11h2.653a12.454,12.454,0,0,0,.338-2.5ZM5.145,12a7.964,7.964,0,0,0,.468,1.068A3.525,3.525,0,0,0,7.5,14.923V12Zm.182,2.472a6.7,6.7,0,0,1-.6-.933A9.268,9.268,0,0,1,4.09,12H2.255a7.024,7.024,0,0,0,3.072,2.472ZM3.82,11a13.652,13.652,0,0,1-.312-2.5H1.018A6.926,6.926,0,0,0,1.674,11Zm6.853,3.472A7.024,7.024,0,0,0,13.745,12H11.91a9.27,9.27,0,0,1-.64,1.539,6.688,6.688,0,0,1-.6.933ZM8.5,12v2.923a3.519,3.519,0,0,0,1.887-1.855A7.964,7.964,0,0,0,10.855,12H8.5Zm3.68-1h2.146a6.926,6.926,0,0,0,.656-2.5h-2.49A13.65,13.65,0,0,1,12.18,11Zm2.8-3.5A6.959,6.959,0,0,0,14.326,5H12.18a13.7,13.7,0,0,1,.312,2.5ZM11.27,2.461A9.255,9.255,0,0,1,11.91,4h1.835a7.024,7.024,0,0,0-3.072-2.472,6.788,6.788,0,0,1,.6.933ZM10.855,4a7.966,7.966,0,0,0-.468-1.068A3.522,3.522,0,0,0,8.5,1.077V4Z" fill="#7E7E7E"/>
</svg>
