<svg xmlns="http://www.w3.org/2000/svg" width="16" height="16" viewBox="0 0 16 16">
  <path id="linkedin" d="M0,1.146A1.161,1.161,0,0,1,1.175,0h13.65A1.161,1.161,0,0,1,16,1.146V14.854A1.161,1.161,0,0,1,14.825,16H1.175A1.161,1.161,0,0,1,0,14.854ZM4.943,13.394V6.169h-2.4v7.225Zm-1.2-8.212a1.252,1.252,0,1,0,.016-2.5,1.251,1.251,0,1,0-.032,2.5Zm4.908,8.212V9.359a1.63,1.63,0,0,1,.08-.586,1.313,1.313,0,0,1,1.232-.878c.869,0,1.216.662,1.216,1.634v3.865h2.4V9.25C13.58,7.03,12.4,6,10.816,6A2.386,2.386,0,0,0,8.651,7.191v.025H8.635l.016-.025V6.169h-2.4c.03.678,0,7.225,0,7.225Z" fill="#7E7E7E"/>
</svg>
