<svg xmlns="http://www.w3.org/2000/svg" width="16" height="15.999" viewBox="0 0 16 15.999"><path d="M1.885.511a1.745,1.745,0,0,1,2.61.163L6.29,2.98a1.744,1.744,0,0,1,.315,1.494l-.547,2.19a.678.678,0,0,0,.178.643L8.693,9.764a.678.678,0,0,0,.644.178L11.526,9.4a1.745,1.745,0,0,1,1.494.315L15.326,11.5a1.745,1.745,0,0,1,.163,2.611l-1.034,1.034a2.777,2.777,0,0,1-2.877.7,18.634,18.634,0,0,1-7.01-4.42A18.634,18.634,0,0,1,.148,4.422a2.78,2.78,0,0,1,.7-2.877Z" transform="translate(0 -0.001)" fill="#e3e3e3" fill-rule="evenodd"/></svg>