<svg xmlns="http://www.w3.org/2000/svg" width="16" height="13.001" viewBox="0 0 16 13.001">
  <path id="twitter" d="M5.026,15a9.277,9.277,0,0,0,9.341-9.334c0-.14,0-.282-.006-.422A6.685,6.685,0,0,0,16,3.542a6.658,6.658,0,0,1-1.889.518,3.3,3.3,0,0,0,1.447-1.817,6.533,6.533,0,0,1-2.087.793,3.286,3.286,0,0,0-5.6,2.994A9.325,9.325,0,0,1,1.108,2.6,3.289,3.289,0,0,0,2.126,6.983,3.323,3.323,0,0,1,.64,6.575V6.62A3.288,3.288,0,0,0,3.272,9.838a3.2,3.2,0,0,1-.865.115A3.23,3.23,0,0,1,1.793,9.9,3.283,3.283,0,0,0,4.86,12.173,6.588,6.588,0,0,1,.78,13.58,6.32,6.32,0,0,1,0,13.535,9.344,9.344,0,0,0,5.026,15Z" transform="translate(0 -1.999)" fill="#7E7E7E"/>
</svg>
