<svg xmlns="http://www.w3.org/2000/svg" width="117.972" height="111.544" viewBox="0 0 117.972 111.544">
  <path id="dotted-circle-blue" d="M1.606,52.247a3.137,3.137,0,0,1-.822.207l.189-.684c.364-1.315.723-2.63,1.1-3.942a1.9,1.9,0,0,1,.268-.429,3.38,3.38,0,0,1-.733,4.848ZM1.44,70.839.9,66.271C2.615,66.894,2.765,68.021,1.44,70.839ZM9.5,58.635A3.844,3.844,0,0,1,6,62.165a2.949,2.949,0,0,1-2.41-2.784c-.024-1.308,2.12-3.168,3.62-3.142A2.174,2.174,0,0,1,9.5,58.635Zm1.293-19.1C10.6,40.928,8.7,43.171,7.764,43.1c-1.493-.117-3.83-2.286-3.73-3.463a3.154,3.154,0,0,1,3.184-2.792c1.912.17,3.728,1.539,3.572,2.693ZM7.77,81.77c-1.292.69-2.032.328-2.564-1.1a15.34,15.34,0,0,0-1.044-1.581c-.327-.611-.948-1.587-.737-1.86a7.79,7.79,0,0,1,2.237-1.56c.156-.094.42-.006.635,0a2.623,2.623,0,0,1,2.768,2.18c.328,1.392-.339,3.413-1.3,3.924Zm8.9-32.9c-.154,2.085-1.726,3.959-3.282,3.912-1.466-.045-3.3-2.474-3.17-4.212a3.53,3.53,0,0,1,3.43-2.748C15.621,45.929,16.794,47.112,16.665,48.871Zm.142,20.976a3.991,3.991,0,0,1-.6,1.146c-.655.614-1.364,1.522-2.124,1.6-1.62.167-4.222-2.4-4.215-3.817a3.371,3.371,0,0,1,2.726-2.49c2.777.13,4.1,1.27,4.218,3.56ZM15.471,88.256A3.805,3.805,0,0,1,11.9,91.7a3.055,3.055,0,0,1-2.35-2.865c.024-1.26,2.333-3.188,3.719-3.1a2.311,2.311,0,0,1,2.2,2.527Zm2-56.67c-.123,2.616-.888,3.49-3.27,3.255C11.933,34.62,10.85,33.8,11,32.263c.057-2.07,1.586-3.863,3.264-3.826a3.562,3.562,0,0,1,3.2,3.148Zm6.745,8.3a34.3,34.3,0,0,1-2.22,2.968,1.514,1.514,0,0,1-1.2.425,4.734,4.734,0,0,1-3.674-2.966c-.115-.276.143-.726.27-1.081a3.088,3.088,0,0,1,3.2-2.154,3.5,3.5,0,0,1,3.51,2.113c.1.206.212.554.115.695ZM24.006,58.48a5.513,5.513,0,0,1-3.61,4.428,4.04,4.04,0,0,1-3.065-1.375,2.309,2.309,0,0,1,.32-2.722,6.6,6.6,0,0,1,2.884-2.617A2.546,2.546,0,0,1,24,58.48ZM22.579,81.43a2.182,2.182,0,0,1-2.439,1.1c-.966-.29-2.247.07-2.487-1.445-.162-1.025-.594-2-.01-3.084.529-.977.53-2.412,2.327-2.02,1.568-.3,2.2.86,2.8,2.032A3.091,3.091,0,0,1,22.579,81.43Zm2.057-59.636c-.018,1.636-1.6,3.71-2.816,3.685-1.772-.036-3.178-1.821-3.131-3.976.035-1.608,1.261-2.449,3.57-2.448a2.73,2.73,0,0,1,2.377,2.74ZM23.342,99.452c-.242.392-.45,1.076-.734,1.109a2.256,2.256,0,0,1-1.334-.6c-1.056-.786-2.078-1.62-3.091-2.46a6.217,6.217,0,0,1-.712-.832,4.128,4.128,0,0,1,1-.77,4.087,4.087,0,0,1,4.668,2.3,3.4,3.4,0,0,1,0,1.093Zm6.371-47.8c-.524.5-1.225,1.3-1.754,1.23a3.829,3.829,0,0,1-3.2-1.781c-.12-.227-.279-.433-.414-.652-.4-.645-1.06-1.306-.4-2.078.72-.84,1.264-2.048,2.826-2a13.9,13.9,0,0,1,2.737,1.23,2.55,2.55,0,0,1,.207,4.054Zm.076,17.692a3.392,3.392,0,0,1-3.372,3.616,3.46,3.46,0,0,1-3.1-3.064c0-1.774,1.743-3.934,3.147-3.892a3.217,3.217,0,0,1,3.322,3.34Zm.173,19.314a3.9,3.9,0,0,1-3.9,3.718,3.235,3.235,0,0,1-2.578-3,3.767,3.767,0,0,1,3.748-3.387A2.819,2.819,0,0,1,29.962,88.66Zm1.772-75.922a13.965,13.965,0,0,1-1.3,3.286c-.251.428-1.08.52-1.647.764a4.271,4.271,0,0,1-3.778-2.635,4.407,4.407,0,0,1,1.432-4.532A3.646,3.646,0,0,1,30,9.674c1.136.677,2.01,2.065,1.731,3.064Zm-.776,19.178a3.219,3.219,0,0,1-3.061,3.2,2.231,2.231,0,0,1-2.408-2.373c.028-2.03,1.29-3.523,2.986-3.534a2.568,2.568,0,0,1,2.483,2.7Zm5.161,46.575c-.005,2.4-.771,3.562-2.466,3.971a3.269,3.269,0,0,1-3.517-2.615,3.736,3.736,0,0,1,4.55-3.61A1.807,1.807,0,0,1,36.119,78.491ZM38.461,2.378a5.474,5.474,0,0,1-3.478,4.379A3.949,3.949,0,0,1,31.875,5.5a2.35,2.35,0,0,1,.237-2.822A6.045,6.045,0,0,1,35.206.185a2.318,2.318,0,0,1,3.255,2.193ZM36.792,98.1a5.294,5.294,0,0,1-3.582,4.418,3.859,3.859,0,0,1-3.075-1.345c-.573-1.023-.276-1.843.39-2.82a6.09,6.09,0,0,1,3.052-2.6A2.5,2.5,0,0,1,36.792,98.1Zm-.956-35.638c-.8,1.1-1.709.35-2.637.044-1.45-.476-1.908-1.756-2.546-2.876-.4-.705,1-2.657,1.99-2.91a4.164,4.164,0,0,1,4.248,1.57,8.544,8.544,0,0,1,.63,1.68C37.75,61.426,36.386,61.716,35.836,62.465Zm1.949-22.51c-.115,1.32-2.2,3.715-3.143,3.6-1.5-.176-3.732-2.324-3.6-3.46a3.422,3.422,0,0,1,3.241-2.782c1.793.155,3.6,1.516,3.5,2.638ZM37.6,22.627c-.226,2.615-.64,3.229-2.823,3.517a2.278,2.278,0,0,1-1.57-.325,4.088,4.088,0,0,1-1.5-3.77A3.254,3.254,0,0,1,34.067,19.4c1.9-.654,3.566.924,3.532,3.23Zm5.838,67.4a5.277,5.277,0,0,1-4.375,2.092c-1.561-.258-2.1-.9-2.108-2.74a5.42,5.42,0,0,1,.28-.993,4.578,4.578,0,0,1,4.993-1.953c1.723.715,2.148,1.978,1.21,3.594Zm-2.9-36.779c-1.393.009-2.9-1.721-2.89-3.285A3.429,3.429,0,0,1,40.808,46.8c1.937,0,2.794,1.028,2.793,3.342a2.818,2.818,0,0,1-3.061,3.107Zm2.72,16.36c-.067,1.789-1.552,3.618-2.885,3.557-1.729-.08-3.1-1.84-3.06-3.923.032-1.6,1.5-2.582,3.7-2.48A2.725,2.725,0,0,1,43.26,69.612ZM41.744,16.834a3.411,3.411,0,0,1-2.95-3.206,3.455,3.455,0,0,1,3.08-3.243c1.913-.027,2.864,1.06,2.868,3.281a2.832,2.832,0,0,1-3,3.168Zm-.75,18.347c-1.39.006-2.462-1.48-2.482-3.438a3.269,3.269,0,0,1,3.075-2.837,2.988,2.988,0,0,1,3.35,3.178C44.947,34.157,43.66,35.168,40.994,35.181Zm2.038,74.3c-.556-.087-1.117-.156-1.67-.266-1.131-.224-2.262-.456-3.386-.713-.666-.153-.883-.508-.322-1.048.748-.72,1.506-1.436,2.69-1.22l.19-.292a8.623,8.623,0,0,1,2.015,1.5,5.334,5.334,0,0,1,.483,2.043Zm7.387-29.168a3.731,3.731,0,0,1-2.448,2.32c-1.692.3-4.409-2.432-4.314-3.86.073-1.1,1.915-2.446,3.234-2.364,2.54.156,4.045,1.6,3.528,3.9Zm.839-40.122c-.136,1.27-2.036,3.64-2.908,3.624-1.512-.026-3.926-2.255-3.818-3.526.11-1.295,1.636-2.866,2.729-2.81C49.429,37.593,51.393,38.926,51.258,40.192Zm.317-17.944c-.265,2.465-1.664,3.488-3.891,3.663C46.611,26,45.138,24.163,45.12,22.9a3.805,3.805,0,0,1,3.607-3.385C50.449,19.546,51.74,20.708,51.575,22.248ZM50.259,98.756c-.077,2.164-1.677,4.12-3.286,4.013-1.4-.092-3.2-2.438-3.165-4.117.031-1.377,1.942-2.935,3.485-2.84,2.03.123,3.03,1.116,2.966,2.944Zm1.67-95.74c-.081,2.138-1.729,4.134-3.309,4-1.4-.114-3.182-2.474-3.14-4.153.036-1.416,1.88-2.885,3.506-2.791,2.037.117,3.01,1.09,2.942,2.938Zm-3.47,60.67a6.734,6.734,0,0,1-.72.188c-1.788.054-2.215-1.537-3.1-2.524-.114-.127-.019-.483.042-.716A5.044,5.044,0,0,1,48.3,57.028c.769-.25,2.394,1.195,2.607,2.24a4.209,4.209,0,0,1-2.45,4.418Zm7.017-10.828c-.876,1.143-1.66.282-2.56-.086a3.7,3.7,0,0,1-1.933-1.722c-.4-.72-1.19-1.343-.542-2.308.983-1.468,1.76-1.857,3.278-1.477a7.721,7.721,0,0,1,2.226.879,2.318,2.318,0,0,1,1.034,2.4c.4,1.265-.927,1.566-1.5,2.317Zm-.648,58.524a46.616,46.616,0,0,1-4.656-.842,1.92,1.92,0,0,1-.932-1.533c.01-.984,1.741-2.212,2.732-2.035a9.143,9.143,0,0,1,2.662.808,2.165,2.165,0,0,1,1.294,2.558c.258.956-.218,1.195-1.1,1.044Zm1.707-77.193c-1.632,1.655-3.48,1.483-4.806-.45a4.949,4.949,0,0,1-.692-1.079c-.192-.563-.543-1.37-.305-1.722a3.056,3.056,0,0,1,2.959-1.82,11.9,11.9,0,0,1,2.569,1.073A2.5,2.5,0,0,1,56.535,34.189Zm.022,54.634a2.96,2.96,0,0,1-4.293,2.392,4.9,4.9,0,0,1-2.137-2.043c-.879-1.328.04-3.558,1.632-3.649a4.452,4.452,0,0,1,3.954,1.436,8.188,8.188,0,0,1,.844,1.864Zm.365-18.543-.294.162c.339,1.332-.927,1.668-1.519,2.406-.9,1.122-1.68.2-2.577-.14a4.415,4.415,0,0,1-2.132-2.07c-.829-1.287.357-3.751,1.887-3.615a8.183,8.183,0,0,1,3.426,1.219c.6.367.818,1.338,1.21,2.038Zm.945-56.26a2.95,2.95,0,0,1-4.3,2.359,5.19,5.19,0,0,1-2.156-2.046c-.832-1.332.217-3.686,1.793-3.69a4.459,4.459,0,0,1,3.728,1.417,9.307,9.307,0,0,1,.931,1.96Zm4.42,85.13c-.093,2.683-.749,3.365-3.205,3.33-1.97-.029-3.32-1.06-3.288-2.512.043-2,1.593-3.895,3.218-3.928,1.467-.03,3.322,1.732,3.274,3.11ZM63.315,61c-.041.75-1.865,2.495-2.577,2.465-1.7-.07-4.259-2.45-4.193-3.9.056-1.217,1.7-2.44,3.18-2.362,2.519.133,3.721,1.406,3.59,3.8ZM61.2,6.752c-1.885-.041-3.3-1.169-3.253-2.588C58.02,2.14,59.6.285,61.226.306a3.68,3.68,0,0,1,3.231,3.01c.008,2.552-.878,3.487-3.255,3.435Zm1.936,72.957c-.018,1.578-1.429,3.308-2.705,3.317-1.707.013-3.805-1.665-3.794-3.032a3.85,3.85,0,0,1,3.671-3.389A3.261,3.261,0,0,1,63.138,79.709Zm1.1-39.3c-.119,1.325-2.1,3.7-3.017,3.625-1.437-.117-3.78-2.238-3.73-3.375.06-1.363,1.76-3,3.014-2.9C62.583,37.93,64.344,39.178,64.234,40.406ZM62.562,25.845a4.267,4.267,0,0,1-1.246.848A3.226,3.226,0,0,1,58.29,24.4a4.007,4.007,0,0,1,1.48-4.1c1.657-1.133,3.356-.327,3.735,1.692a4.545,4.545,0,0,1-.943,3.848Zm6.045,84.3a2.067,2.067,0,0,1-2.242,1.247,2.7,2.7,0,0,0-1.026.033c-1.334.462-1.884-.421-2.4-1.349a1.847,1.847,0,0,1,.49-2.544,24.728,24.728,0,0,1,2.911-1.66l.171.307C68.847,106.283,69.707,108.057,68.607,110.145Zm1.858-59.456c-.045,1.053-1.637,3-2.45,2.99-1.63-.015-4.353-2.52-4.3-3.959a3.19,3.19,0,0,1,2.88-2.435C69.2,47.428,70.551,48.614,70.465,50.689ZM69.022,91.764c-1.612,1.713-3.607,1.527-4.9-.458a3.842,3.842,0,0,1-.6-.981c-.162-.615-.487-1.461-.22-1.858.535-.794,1.09-1.814,2.406-1.968a13.875,13.875,0,0,1,2.936,1.078,2.6,2.6,0,0,1,.388,4.187Zm.8-21.677a3.469,3.469,0,0,1-2.381,3.45,3.351,3.351,0,0,1-3.222-1.4,2.507,2.507,0,0,1-.019-2.785,3.519,3.519,0,0,1,2.611-2.04c2.055-.382,3.072.532,3.01,2.78Zm1.164-56.236c-.63,1.2-.922,2.938-3.008,2.936-.935-.028-2.8-1.764-3.1-3.023-.248-1.05.507-2.222,1.884-2.923a3.423,3.423,0,0,1,4.05.492c.028.033.072.067.075.1C70.947,12.253,71.31,13.231,70.986,13.851Zm-.02,19.289a3.483,3.483,0,0,1-2.37,3.494,3,3,0,0,1-3.515-3.49,3.638,3.638,0,0,1,2.045-2.5c2.248-.978,3.882.076,3.84,2.493ZM75.195,6.95c-1.749-.069-3.69-1.645-3.692-3C71.5,2.475,73.277.521,74.621.52A3.348,3.348,0,0,1,77.97,3.55c.051,1.582-1.476,3.452-2.776,3.4Zm1.093,93.024c-.07,1.615-1.522,3.3-2.785,3.235-1.79-.1-3.676-1.625-3.68-2.984a3.866,3.866,0,0,1,3.464-3.458,3.267,3.267,0,0,1,3,3.207ZM73.852,83.09a3.043,3.043,0,0,1-3.667-3,3.73,3.73,0,0,1,2.8-3.172c2.016-.443,3.157.463,3.167,2.514.009,1.887-.844,3.246-2.3,3.663Zm3.917-42.4c-.145,1.36-2.067,3.648-3.008,3.583-1.478-.1-3.867-2.288-3.774-3.453a3.2,3.2,0,0,1,3.312-2.8c1.816.164,3.59,1.528,3.47,2.665Zm.354-17.108c.009,1.553-1.406,3.3-2.695,3.324-1.717.033-3.788-1.621-3.773-3.014a3.882,3.882,0,0,1,3.37-3.415,3.218,3.218,0,0,1,3.1,3.1ZM76.981,59.885a3.86,3.86,0,0,1-3.57,3.458,2.914,2.914,0,0,1-2.322-2.72c-.04-1.338,2.025-3.208,3.54-3.205a2.227,2.227,0,0,1,2.352,2.467ZM84.33,15.028a7.689,7.689,0,0,0-.629.946,2.6,2.6,0,0,1-4.574.364,12.03,12.03,0,0,1-.97-2.056,9.448,9.448,0,0,1,.666-1.6c1.074-1.62,3.4-2.346,4.762-1.54a2.778,2.778,0,0,1,.745,3.887ZM79.82,93.354c-1.454.03-2.853-1.665-2.828-3.3A3.339,3.339,0,0,1,80.128,86.9c1.9.022,2.812,1.116,2.816,3.368a2.893,2.893,0,0,1-3.123,3.09Zm1.047-39.392c-2.02-.06-3.24-1.038-3.2-2.57.053-2.037,1.628-3.909,3.254-3.868,1.431.037,3.229,1.735,3.222,3.045-.013,2.625-.823,3.464-3.277,3.393Zm2.447,15.924c-.062,1.947-1.361,3.5-2.926,3.5a3.211,3.211,0,0,1-3.052-2.891,3.7,3.7,0,0,1,3.68-3.537c1.716.008,2.365.836,2.3,2.932Zm-.84,39.385c-1.7.413-3.435.695-5.422,1.083-.118-.278-.411-.623-.348-.88.42-1.723,1.86-2.353,3.322-2.915,1.109-.427,1.916.272,2.663.884.73.6.6,1.63-.215,1.828Zm1.59-75.414c-.056.117-.117.23-.17.348-.849,1.912-1.551,2.524-2.648,2.306a3.506,3.506,0,0,1-2.714-3.587,2.919,2.919,0,0,1,2.233-2.643,2.771,2.771,0,0,1,3.018.486c.824.793.9,1.786.28,3.09Zm5.867,46.488c-.172,1.893-1.574,3.812-2.685,3.676a3.363,3.363,0,0,1-3.065-3.846c.148-1.671,1.6-3.126,2.987-3A2.959,2.959,0,0,1,89.931,80.345Zm-.15,19.146a3.742,3.742,0,0,1-3.5,3.457,2.881,2.881,0,0,1-2.408-2.74c-.037-1.234,2.153-3.19,3.57-3.187a2.244,2.244,0,0,1,2.34,2.47Zm1.99-58.59c-.105,1.37-2.127,3.712-3.112,3.6-1.45-.157-3.746-2.283-3.68-3.407a3.337,3.337,0,0,1,3.165-2.847c1.924.171,3.719,1.482,3.628,2.649ZM90.962,61.18a2.683,2.683,0,0,1-3.1,2.666A2.76,2.76,0,0,1,85.073,60.7c.172-2.25,1.02-3.108,3.008-3.045,1.45.046,2.91,1.83,2.881,3.52ZM91.6,22.79c0,.17-.029.342-.044.512a4.45,4.45,0,0,1-1.662,3.45c-.354.321-1.18.244-1.766.165A2.562,2.562,0,0,1,85.769,24.7a5.044,5.044,0,0,1,1.083-2.848,3.858,3.858,0,0,1,1.882-1.19c1.88-.665,2.877.114,2.866,2.13Zm4.908,29.943a14.129,14.129,0,0,1-3.44,1.769c-.787-.477-1.658-.725-2.038-1.3a2.793,2.793,0,0,1,.063-3.162,5.086,5.086,0,0,1,4.337-1.727c.908.26,2.016.682,2.049,1.678a3.929,3.929,0,0,1-.971,2.741Zm.31,38.606A2.067,2.067,0,0,1,95.1,93.015c-.528.1-1.033.314-1.552.464-1.324.386-2.817-.959-3.038-2.742a3.217,3.217,0,0,1,0-.542c-.186-1.636,1.054-2.155,2.02-2.786a3.484,3.484,0,0,1,3.511.55,3.663,3.663,0,0,1,.771,3.38Zm.467-20.769c-.272,2.193-.383,2.858-1.839,3.3-2.614.8-3.47-.234-4.073-3A3.342,3.342,0,0,1,94.364,67.2C96.011,67.08,97.314,68.583,97.285,70.57ZM98.8,13.051c-.058,1.924-1.882,4.236-3.321,4.21-1.15-.02-3.162-2.57-3.145-3.985.02-1.6,1.841-2.9,4.056-2.907a2.666,2.666,0,0,1,2.41,2.682Zm-.871,20.98a9.525,9.525,0,0,1-.674,1.976c-.759,1.347-1.808,1.537-3.137.725a3.52,3.52,0,0,1,.913-6.311c1.5-.511,2.895,1.138,2.9,3.61Zm6.066,47.214a5.983,5.983,0,0,1-3.807,2.015,2.574,2.574,0,0,1-2.166-4.066c.708-1.159,3.293-2.254,4.545-1.781C104.536,78.157,105.2,79.127,103.994,81.245Zm.57-55.874a10.386,10.386,0,0,1-2.781,1.535c-2.73-.095-3.8-1.81-2.945-3.739a4.8,4.8,0,0,1,4.846-2.092c2.109.759,2.588,2.655.88,4.3Zm-1.431,38.438a1.349,1.349,0,0,1-.844.387c-1.745-.032-4.373-2.474-4.287-3.933.07-1.2,1.8-2.418,3.325-2.334,1.928.107,3.536,1.49,3.6,2.83.065,1.48-.915,2.209-1.79,3.05Zm2.132-22.646c-.182,1.4-2.108,3.662-3.049,3.58-1.553-.138-3.792-2.27-3.691-3.519a3.1,3.1,0,0,1,3.119-2.737c1.908.17,3.767,1.543,3.62,2.676Zm5.84,10c-.04,1.645-1.447,3.315-2.74,3.252-1.87-.092-3.805-1.7-3.728-3.106a3.964,3.964,0,0,1,3.6-3.336,3.142,3.142,0,0,1,2.863,3.19Zm-.654,20.49c-.056.115-.138.219-.191.335-.94,2.078-1.515,2.577-2.721,2.365-1.573-.277-2.64-1.7-2.737-4.283.027-.876,1.29-1.37,2.353-1.916a2.46,2.46,0,0,1,2.975.52,2.4,2.4,0,0,1,.32,2.978ZM106.389,88.27l-1.6,3.455A2.472,2.472,0,0,1,106.389,88.27Zm5.526-54.8A3.758,3.758,0,0,1,108.439,37c-1.132.012-2.345-1.38-2.418-2.777-.061-1.17,2.093-3.139,3.484-3.182a2.259,2.259,0,0,1,2.41,2.432Zm6.838,7.875c-.1,1.3-2.06,3.687-2.987,3.637-1.616-.089-3.88-2.27-3.735-3.6a3.073,3.073,0,0,1,3.31-2.645c1.7.14,3.5,1.512,3.412,2.608Zm-.8-15.29a1.352,1.352,0,0,1-1.825.44,8.234,8.234,0,0,1-2.513-1.242,7.868,7.868,0,0,1-1.24-2.265,2.859,2.859,0,0,1,1.785-2.281,2.717,2.717,0,0,1,2.66,1.089,15.016,15.016,0,0,0,1.253,2.069c.707.831.346,1.483-.12,2.19ZM117.925,60.6a3.732,3.732,0,0,1-3.544,3.455c-1.09-.04-2.353-1.575-2.355-2.86,0-1.23,2.285-3.117,3.714-3.065a2.145,2.145,0,0,1,2.185,2.47Z" transform="translate(-0.784 -0.007)" fill="#34a853" fill-rule="evenodd"/>
</svg>
