<svg xmlns="http://www.w3.org/2000/svg" xmlns:xlink="http://www.w3.org/1999/xlink" width="360" height="48.073" viewBox="0 0 480 48.073">
  <defs>
    <clipPath id="clip-path">
      <rect id="Rectangle_858" data-name="Rectangle 858" width="128" height="32" transform="translate(268 7)" fill="#fff"/>
    </clipPath>
    <clipPath id="clip-path-2">
      <rect id="Rectangle_859" data-name="Rectangle 859" width="39" height="46" transform="translate(441 2)" fill="#fff"/>
    </clipPath>
  </defs>
  <g id="hero-brands.69df86ee" transform="translate(0 -2)">
    <path id="Path_344" data-name="Path 344" d="M94.4,36.982a20.6,20.6,0,0,1-4.158-.91l-.345-.148-.047-1.707c-.026-.939-.055-2.195-.066-2.79l-.019-1.083.207-.1a1.6,1.6,0,0,1,.51-.113l.3-.014.258.635c1.007,2.478,2.189,3.815,3.732,4.221a4.933,4.933,0,0,0,2.128,0,2.641,2.641,0,0,0,1.9-2.617c.007-1.495-.815-2.213-3.92-3.426a8.115,8.115,0,0,1-3.394-1.955,4.728,4.728,0,0,1-1.354-3.284,5.506,5.506,0,0,1,1.607-4.328,7.19,7.19,0,0,1,4.8-2.074,15.454,15.454,0,0,1,6.134.847l.27.114.048,1.522c.026.837.054,1.959.061,2.493l.012.972-.362.134c-.572.213-.609.186-.928-.657-.892-2.364-1.929-3.482-3.545-3.824a2.422,2.422,0,0,0-2.4.655,2.374,2.374,0,0,0-.692,1.684,2.071,2.071,0,0,0,.588,1.779,10.02,10.02,0,0,0,3.58,2.063c2.425,1.013,3.582,1.873,4.211,3.13a4.961,4.961,0,0,1,.483,2.723,4.649,4.649,0,0,1-.275,1.767A6.224,6.224,0,0,1,99,36.75a7.839,7.839,0,0,1-2.584.245c-.946.01-1.854,0-2.019-.013Zm-32.225-.214a9.112,9.112,0,0,0,5.348-2.5,10.584,10.584,0,0,0,2.889-8.3,9.492,9.492,0,0,0-1.1-4.41,6.956,6.956,0,0,0-4.677-3.749,8.148,8.148,0,0,0-4.782.605,4.492,4.492,0,0,1-.759.3c-.1,0-.107-.553-.082-4.359L59.037,10l-.3.06c-.165.033-1.847.347-3.739.7s-3.513.654-3.6.675c-.137.032-.161.084-.146.318.016.261.038.284.313.345.948.208,1.117.283,1.469.647a3.4,3.4,0,0,1,.755,2.2c.1.947.125,17.257.027,19.664l-.057,1.428.771.165a23.972,23.972,0,0,0,7.65.567Zm20.6,0a9.054,9.054,0,0,0,4.664-2.273c.671-.636.894-.943.8-1.1-.249-.429-.238-.429-.875-.038a5.248,5.248,0,0,1-2.712.916,6.747,6.747,0,0,1-3.858-.7,6.112,6.112,0,0,1-2.2-2.17,9.453,9.453,0,0,1-1.1-4.186c-.044-.719-.034-.9.05-.952.058-.036,2.551-.066,5.581-.067h5.477v-.216a17.758,17.758,0,0,0-.306-2.505c-.582-2.786-2.118-4.772-4.308-5.571a7.655,7.655,0,0,0-2.783-.452A8.375,8.375,0,0,0,74.9,19.98a9.734,9.734,0,0,0-2.536,4.98,8.973,8.973,0,0,0-.165,2.317,8.97,8.97,0,0,0,.162,2.3,8.738,8.738,0,0,0,7.158,7.163,11.15,11.15,0,0,0,3.25.03Zm-53.009-.1a8.655,8.655,0,0,0,3.33-1.488A9.547,9.547,0,0,0,36.769,27.5a10.106,10.106,0,0,0-2.791-7.886,8.349,8.349,0,0,0-6.046-2.167,8.76,8.76,0,0,0-6.51,2.505A9.979,9.979,0,0,0,18.7,27.181,10.1,10.1,0,0,0,21.2,34.4a7.342,7.342,0,0,0,3.068,1.971,11.812,11.812,0,0,0,1.981.46c.1.019.793.023,1.533.008a9.361,9.361,0,0,0,1.982-.175ZM15.309,27.949l-.173-.71a3.7,3.7,0,0,0-1.727-2.632,10.808,10.808,0,0,0-2.954-.3l-.8-.024V25.97c0,1.838.1,4.326.231,5.675.181,1.882.662,2.921,1.526,3.3a6.661,6.661,0,0,0,1.16.259,6.929,6.929,0,0,1,.991.2c.183.094.193,1.069.013,1.138-.142.054-13.336.05-13.471,0-.062-.025-.093-.211-.093-.556,0-.619-.04-.592,1.159-.814a2.167,2.167,0,0,0,1.654-.877c.787-1.032.957-3.017.959-11.194,0-7.68-.146-9.295-.96-10.482a2.564,2.564,0,0,0-1.989-.935l-.785-.094-.022-.613L0,10.356l.246-.044c.135-.024,4.888-.034,10.562-.023l10.316.021.049.3c.027.164.07,1.851.1,3.748l.049,3.449-.532.161c-.8.243-.8.246-1.156-.706-.885-2.34-1.9-3.688-3.287-4.369-.957-.47-1.4-.526-4.1-.526H9.886l-.04.392c-.076.736-.2,5.469-.2,7.7V22.68l.692,0c.38,0,1.13-.03,1.667-.062a3.334,3.334,0,0,0,1.383-.247,3.551,3.551,0,0,0,1.738-2.6l.178-.709,1.221-.043v8.981Zm21.648,8.569c-.068-.043-.091-.216-.075-.578l.023-.516.262-.056c.144-.031.453-.092.687-.135a1.641,1.641,0,0,0,1.374-1.3,38.6,38.6,0,0,0,.279-6.659c.005-4.925-.1-6.088-.6-6.747-.27-.357-.465-.459-1.119-.585-.323-.062-.664-.128-.756-.148-.15-.031-.168-.08-.168-.446s.023-.42.168-.48c.224-.092,7.631-1.572,7.867-1.572h.185l-.036,1.1c-.02.606-.052,1.489-.071,1.962l-.035.86.268-.484a6.7,6.7,0,0,1,3.1-3.1,4.207,4.207,0,0,1,2.041-.418c1.031,0,2.06.336,2.06.672,0,.226-1.815,5.021-1.915,5.059a3.012,3.012,0,0,1-.788-.3,5.22,5.22,0,0,0-2.284-.571,3.6,3.6,0,0,0-2.326.767c-.171.184-.172.195-.215,2.941-.042,2.72.049,6.037.2,7.371.131,1.136.432,1.7,1.056,1.957a11.183,11.183,0,0,0,1.955.268,1.456,1.456,0,0,1,.037.579l-.022.579-5.533.018c-3.011.01-5.523-.01-5.63-.044Zm-8.4-1.023a3.042,3.042,0,0,0,1.531-1.435c.719-1.374,1.04-3.407,1.048-6.634.01-4.045-.624-6.618-1.963-7.966a2.037,2.037,0,0,0-1.68-.74c-1.6,0-2.608,1.667-3.008,4.945a37.435,37.435,0,0,0,0,6.414C25.046,34.157,26.509,36.1,28.552,35.5Zm32.4-.036a2.769,2.769,0,0,0,1.418-.726C63.5,33.713,64.355,31.606,64.691,29a22.031,22.031,0,0,0-.033-4.373c-.41-2.4-1.291-3.978-2.576-4.613a2.009,2.009,0,0,0-1.248-.282,4.169,4.169,0,0,0-1.172.146l-.5.146-.037,2.732c-.047,3.5.067,12.26.163,12.511.061.16.128.194.431.218a3.576,3.576,0,0,0,1.224-.021ZM81.795,24.726l1.3-.045-.047-.924c-.165-3.257-.963-5.037-2.256-5.036-1.406,0-2.529,1.808-3,4.818a9.193,9.193,0,0,0-.106.975v.3l1.4-.023c.771-.012,1.987-.043,2.7-.068Z" fill-rule="evenodd"/>
    <path id="Path_345" data-name="Path 345" d="M196.685,36.7a1.2,1.2,0,0,0,.628-.661,1.22,1.22,0,0,0-.016-.918L184.2,4.685a1.193,1.193,0,0,0-.653-.636,1.173,1.173,0,0,0-.906.016l-30.02,13.273a1.2,1.2,0,0,0-.627.662,1.216,1.216,0,0,0,.016.918l13.1,30.435a1.193,1.193,0,0,0,.653.636,1.174,1.174,0,0,0,.906-.016L196.685,36.7Z"/>
    <path id="Path_346" data-name="Path 346" d="M182.074,14.606h-7.441V27.589h-8.925l8.647-12.982H161.228L158.8,18.273h7.949l-8.691,12.982h17.719l3.12-4.667V18.273h2.389a4.348,4.348,0,0,1,4.682,4.656c0,3.248-2.179,4.659-4.726,4.659H179.36v3.667h2.714a8.325,8.325,0,1,0,0-16.649Z" fill="#fff"/>
    <path id="Path_347" data-name="Path 347" d="M191.859,14.417h3.692l3.165,6.709a32.429,32.429,0,0,1,1.81,4.754q-.2-2.3-.262-4.61l-.071-6.853h3.166V31.192h-3.477L197.05,24.77c-.9-2.1-1.929-4.464-2.239-5.5.121,1.376.146,3.356.168,4.755l.1,7.169h-3.215Zm22.232,13.492,1.238,1.931a6.948,6.948,0,0,1-4.6,1.715c-3.5,0-5.761-2.51-5.761-6.4a6.828,6.828,0,0,1,1.522-4.9,4.769,4.769,0,0,1,3.834-1.666,4.939,4.939,0,0,1,3.523,1.306c1.118,1.158,1.619,2.823,1.619,5.407v.746h-7.048v.1c0,1.905.931,2.992,2.573,2.992a4.724,4.724,0,0,0,3.1-1.232Zm-5.618-4.224h3.691v-.144a3.225,3.225,0,0,0-.382-1.86,1.543,1.543,0,0,0-1.4-.724c-1.213,0-1.9.965-1.9,2.68v.048Zm15.354-4.875-.808,2.146h-2.048v6.3c0,1.569.285,1.98,1.381,1.98a4.176,4.176,0,0,0,1.143-.244l.4,1.93a6.591,6.591,0,0,1-2.6.557c-1.619,0-2.929-.725-3.286-1.81a4.611,4.611,0,0,1-.214-1.908V20.956H216.59v-2.1H217.8a21.88,21.88,0,0,1,.12-2.944l3.236-.821a36.34,36.34,0,0,0-.19,3.717h2.856Z"/>
    <g id="Group_275" data-name="Group 275" clip-path="url(#clip-path)">
      <path id="Path_348" data-name="Path 348" d="M272.909,38.642H268V7.317l4.909.318Z"/>
      <path id="Path_349" data-name="Path 349" d="M280.946,38.642h-4.909V16.3l4.909.278ZM278.491,9.5a2.823,2.823,0,1,1-2.811,2.822A2.828,2.828,0,0,1,278.491,9.5"/>
      <path id="Path_350" data-name="Path 350" d="M292.664,20.793v4.929h-3.682v12.9h-4.909V14.115c0-3.737,3.088-7.116,6.731-7.116a5.454,5.454,0,0,1,2.454.517l-.2,4.731H290.8a1.855,1.855,0,0,0-1.822,1.868v6.678Z"/>
      <path id="Path_351" data-name="Path 351" d="M299.559,25.087h3.682V22.781a1.841,1.841,0,1,0-3.682,0Zm-4.909-2.306a6.75,6.75,0,1,1,13.5,0v4.77a2.446,2.446,0,0,1-2.454,2.464h-6.137v2.147a1.862,1.862,0,0,0,1.861,1.868h4.711l.159,4.174-4.435.676c-4.275.716-7.205-2.981-7.205-6.718Z"/>
      <path id="Path_352" data-name="Path 352" d="M312.348,38.642V7.516h3.168v9.461a12.224,12.224,0,0,1,3.206-.4c3.366,0,5.979,3.061,5.979,6.52V38.642h-3.088V23.1a3.065,3.065,0,0,0-3.088-3.061h-3.009v18.6Z"/>
      <path id="Path_353" data-name="Path 353" d="M336.288,32.64V27.273H333.24a3.032,3.032,0,0,0-3.049,3.061V32.64a3.049,3.049,0,1,0,6.1,0Zm0-10.057c0-1.789-.831-3.22-3.088-2.981h.04c-1.267.04-2.89.2-4.236.278-.04-1.153-.079-1.59-.119-2.465a13.462,13.462,0,0,1,3.919-.835,6.446,6.446,0,0,1,6.573,6.6V32.64a6.2,6.2,0,0,1-6.137,6.241,6.265,6.265,0,0,1-6.216-6.241V30.692c0-3.419,2.336-6,6.216-6a9.748,9.748,0,0,1,3.048.4Z"/>
      <path id="Path_354" data-name="Path 354" d="M348.246,16.58a6.238,6.238,0,0,1,6.215,6.241v.4c-1.227.04-2.217.04-3.127.08v-.477a3.09,3.09,0,0,0-3.088-3.061,3.048,3.048,0,0,0-3.009,3.061v9.938a3,3,0,0,0,3.009,3.061,3.041,3.041,0,0,0,3.088-2.942c1.544.119,3.009.2,3.127.2a6.2,6.2,0,0,1-12.391-.318V22.821a6.205,6.205,0,0,1,6.176-6.241"/>
      <path id="Path_355" data-name="Path 355" d="M366.94,38.642l-6.018-10.535c-.594-1.033-.594-1.153.119-2.385l5.305-8.825h3.6l-5.978,10.177,6.453,11.568ZM360.131,7.6V38.642h-3.168V7.6Z"/>
      <path id="Path_356" data-name="Path 356" d="M374.259,26.2h6.1V22.86a3.049,3.049,0,1,0-6.1,0Zm-3.168-3.339a6.2,6.2,0,1,1,12.392,0v4.89a1.566,1.566,0,0,1-1.583,1.59h-7.641v3.379a3.065,3.065,0,0,0,3.048,3.1h4c.039,1.033.079,1.749.158,2.465l-3.8.6c-3.879.676-6.572-2.7-6.572-6.162V22.86"/>
      <path id="Path_357" data-name="Path 357" d="M389.428,38.642h-3.167v-15.5a6.512,6.512,0,0,1,6.651-6.6,6.922,6.922,0,0,1,3.088.8c-.039.954-.079,1.749-.118,2.465l-3.445-.079c-1.663,0-3.009,1.789-3.009,3.419v15.5"/>
    </g>
    <g id="Group_276" data-name="Group 276" clip-path="url(#clip-path-2)">
      <path id="Path_358" data-name="Path 358" d="M441.014,2H479.96q0,23,0,46H441.014Zm23.262,4.713a5.473,5.473,0,0,0-1.861,1.2,4.562,4.562,0,0,0-1.234,2.326,6.838,6.838,0,0,0-.142,1.646V30.914a6.129,6.129,0,0,0,.428,2.472,4.4,4.4,0,0,0,1.085,1.559,6.239,6.239,0,0,0,2.707,1.4,13.688,13.688,0,0,0,3.274.4,12.452,12.452,0,0,0,3.161-.309,5.84,5.84,0,0,0,2.256-1.052,4.361,4.361,0,0,0,1.379-1.92,7.034,7.034,0,0,0,.392-2.474c0-2.46,0-4.92,0-7.38-2.053,0-4.1,0-6.158,0q0,3.727,0,7.455a2.085,2.085,0,0,1-.117.894.853.853,0,0,1-.756.456,1.1,1.1,0,0,1-.869-.23,1.13,1.13,0,0,1-.285-.809q0-10,0-20a1.206,1.206,0,0,1,.175-.691.889.889,0,0,1,.747-.372,1.045,1.045,0,0,1,.875.292,1.379,1.379,0,0,1,.231.961V15.4c.005.976-.01,1.953.008,2.93,2.051,0,4.1,0,6.152,0q0-3.378,0-6.755A6.524,6.524,0,0,0,475.228,9a4.265,4.265,0,0,0-1.26-1.634,5.8,5.8,0,0,0-2.193-1.044,12.261,12.261,0,0,0-3.01-.332,12.434,12.434,0,0,0-4.489.727Zm-19.01-.5q0,15.2,0,30.406c2.164.008,4.328,0,6.492,0q0-5.014,0-10.028c.006-.583-.011-1.166.009-1.749.3,0,.6,0,.893,0a19.9,19.9,0,0,0,2.149-.058,7.166,7.166,0,0,0,2.17-.546,4.256,4.256,0,0,0,1.277-.863,4.442,4.442,0,0,0,1.192-2.146,9.031,9.031,0,0,0,.23-2.453v-6.7a9.559,9.559,0,0,0-.115-1.8,4.8,4.8,0,0,0-1.214-2.6,4.576,4.576,0,0,0-1.9-1.158,9.548,9.548,0,0,0-3.127-.4c-2.678,0-5.356.007-8.033,0-.006.024-.019.072-.026.1Zm3.927,32.407a1.589,1.589,0,0,0-.568,1,8.856,8.856,0,0,0-.132,1.8,5.9,5.9,0,0,0,.195,1.664,1.24,1.24,0,0,0,.6.769,2.151,2.151,0,0,0,1.344.112c.058-.113.176-.035.26-.1a1.2,1.2,0,0,0,.59-.884,3.768,3.768,0,0,0,.031-1.275c-.311.007-.623-.021-.934-.013a5.39,5.39,0,0,1,.015.916,1.194,1.194,0,0,1-.14.554.458.458,0,0,1-.531.132.47.47,0,0,1-.264-.376,7.327,7.327,0,0,1-.087-1.156c.005-.421-.013-.842.013-1.262a4.529,4.529,0,0,1,.112-1.126.619.619,0,0,1,.113-.214.422.422,0,0,1,.456-.06c.123.049.16.185.2.3a3.815,3.815,0,0,1,.042,1.119c.323,0,.645-.021.968-.029A2.934,2.934,0,0,0,451.325,39a1.094,1.094,0,0,0-.9-.593,1.825,1.825,0,0,0-1.237.207Zm11.409-.11a1.235,1.235,0,0,0-.676.8,5.813,5.813,0,0,0-.222,1.607,7.492,7.492,0,0,0,.154,2.027,1.423,1.423,0,0,0,.581.883,1.707,1.707,0,0,0,1.062.167.928.928,0,0,0,.633-.5c.082.13.147.272.238.4.119.055.263.008.391.029a.2.2,0,0,0,.033-.126c0-.9,0-1.809,0-2.714-.488-.007-.976-.005-1.463,0a6.983,6.983,0,0,0,.012.779c.181,0,.362,0,.543,0a3,3,0,0,1-.132,1.24.537.537,0,0,1-.647.2.372.372,0,0,1-.213-.266,3.335,3.335,0,0,1-.106-.8c-.019-.562-.012-1.125-.009-1.687a4.074,4.074,0,0,1,.147-1.25.381.381,0,0,1,.688-.023,2.676,2.676,0,0,1,.093,1.112c.324.038.652-.018.979-.006a2.676,2.676,0,0,0-.2-1.421,1.026,1.026,0,0,0-.747-.516,2.176,2.176,0,0,0-1.143.081Zm4.937.039a1.287,1.287,0,0,0-.611.794,5.756,5.756,0,0,0-.2,1.46,10.17,10.17,0,0,0,.1,1.91,1.712,1.712,0,0,0,.458.97,1.431,1.431,0,0,0,.948.326,1.516,1.516,0,0,0,1.075-.277,1.637,1.637,0,0,0,.461-1.172,3.582,3.582,0,0,0-.022-.847,8.129,8.129,0,0,0-.942-.021,5.664,5.664,0,0,1,.024.793,1.386,1.386,0,0,1-.143.669.472.472,0,0,1-.608.1.865.865,0,0,1-.234-.615c-.047-.457-.032-.918-.035-1.377a12.971,12.971,0,0,1,.058-1.614,1.01,1.01,0,0,1,.171-.494.389.389,0,0,1,.614.118,3.44,3.44,0,0,1,.091,1.239c.319,0,.638-.02.957-.031a2.909,2.909,0,0,0-.132-1.454,1.1,1.1,0,0,0-.9-.613,1.988,1.988,0,0,0-1.123.136Zm4.054-.156a1.4,1.4,0,0,0-.829.262,1.589,1.589,0,0,0-.506.886,7.874,7.874,0,0,0-.15,1.914,6.032,6.032,0,0,0,.187,1.572,1.326,1.326,0,0,0,.528.783,1.716,1.716,0,0,0,.958.2,1.43,1.43,0,0,0,.96-.315,1.862,1.862,0,0,0,.473-1,7.624,7.624,0,0,0,.111-1.478,7.382,7.382,0,0,0-.119-1.528,1.774,1.774,0,0,0-.513-1.012,1.571,1.571,0,0,0-1.1-.288Zm-24.322.083c-.015,1.8.006,3.605-.01,5.408a.857.857,0,0,0,.328.028c.236-.005.473.009.708-.006,0-.029.01-.088.013-.118,0-.649,0-1.3,0-1.948a5.264,5.264,0,0,0,.845-.052,1.109,1.109,0,0,0,.785-.555,2.613,2.613,0,0,0,.211-1.351,1.53,1.53,0,0,0-.473-1.094,1.642,1.642,0,0,0-.993-.312c-.47,0-.94,0-1.411,0Zm6.732,0c0,1.811,0,3.622,0,5.433.232.008.463,0,.694,0a.682.682,0,0,0,.261-.026c-.012-.748,0-1.5-.006-2.245.008-.528-.021-1.056,0-1.584.023.182.022.367.051.55.155,1.1.371,2.2.547,3.3.3.007.594.014.891,0,.136-.855.3-1.707.434-2.562.075-.449.1-.9.158-1.356,0,1.308-.011,2.617,0,3.926.315,0,.63,0,.946,0,.006-1.812,0-3.623,0-5.435-.439.007-.879-.007-1.318.006a2.862,2.862,0,0,0-.091.436q-.294,1.65-.586,3.3c-.224-1.243-.432-2.489-.639-3.735-.447-.014-.9,0-1.343-.008Zm5.376,0c-.276,1.464-.566,2.926-.852,4.388-.056.35-.154.694-.188,1.047.318,0,.637-.007.955.005.1-.323.121-.668.193-1,.274,0,.548,0,.822,0,.067.332.114.669.2,1,.356-.013.714.007,1.071-.01-.034-.3-.118-.593-.173-.889-.315-1.491-.626-2.983-.943-4.473,0-.114-.134-.081-.209-.086a7.831,7.831,0,0,0-.874.02Zm14.363,0c0,1.813-.005,3.626,0,5.438a8.3,8.3,0,0,0,.952-.025c-.007-1.3-.006-2.6-.005-3.9a12.439,12.439,0,0,0,.169,1.386c.139.835.288,1.669.431,2.5.031.063.11.03.165.038a6.543,6.543,0,0,0,.724-.018c.153-.916.325-1.829.467-2.746.062-.388.071-.782.125-1.17.014.363.005.728,0,1.091,0,.946-.005,1.893,0,2.839.314.008.629,0,.945,0q.006-2.718,0-5.437H474.4c-.111.529-.2,1.063-.291,1.595a2.478,2.478,0,0,0-.06.485l-.035.038c-.091.541-.191,1.082-.29,1.622-.218-1.245-.425-2.492-.641-3.738-.446,0-.893,0-1.34,0Zm-8.473,4.25c0,.393,0,.785,0,1.178.308.021.618,0,.927.01a.37.37,0,0,0,.209-.031c-.015-.385,0-.771-.005-1.156-.377-.008-.753-.007-1.13,0Z"/>
      <path id="Path_359" data-name="Path 359" d="M451.763,10.514a2.905,2.905,0,0,1,1.5.284,1.183,1.183,0,0,1,.53.776,4.009,4.009,0,0,1,.065.96v6.013a2.281,2.281,0,0,1-.244,1.281,1.422,1.422,0,0,1-1.043.574,3.963,3.963,0,0,1-.8.048c-.013-2.319,0-4.639-.005-6.959,0-.992-.006-1.984,0-2.976Z"/>
      <path id="Path_360" data-name="Path 360" d="M469.428,39.153c.1-.106.258-.083.382-.137.064.08.179.1.234.191a.994.994,0,0,1,.145.44,11.623,11.623,0,0,1,.055,1.573,10.69,10.69,0,0,1-.06,1.57.673.673,0,0,1-.228.472.541.541,0,0,1-.456.011.741.741,0,0,1-.264-.559,17.121,17.121,0,0,1-.053-1.84,11.243,11.243,0,0,1,.047-1.147,1,1,0,0,1,.2-.574Z"/>
      <path id="Path_361" data-name="Path 361" d="M446.309,39.2a.589.589,0,0,1,.615.178,1.517,1.517,0,0,1,.156.814,1.171,1.171,0,0,1-.224.784.768.768,0,0,1-.542.107c-.01-.627,0-1.254-.005-1.882Z"/>
      <path id="Path_362" data-name="Path 362" d="M457.631,42.169c.058-.753.2-1.5.251-2.251.087.75.193,1.5.283,2.249C457.986,42.171,457.809,42.17,457.631,42.169Z"/>
      <path id="Path_363" data-name="Path 363" d="M479.96,2h.025V48h-.026Q479.96,25,479.96,2Z" fill="#fff"/>
      <path id="Path_364" data-name="Path 364" d="M464.276,6.713a12.442,12.442,0,0,1,4.489-.727,12.256,12.256,0,0,1,3.01.332,5.79,5.79,0,0,1,2.193,1.044A4.255,4.255,0,0,1,475.228,9a6.542,6.542,0,0,1,.494,2.581q0,3.378,0,6.755c-2.051,0-4.1,0-6.152,0-.018-.976,0-1.953-.007-2.93V11.573a1.385,1.385,0,0,0-.231-.961,1.046,1.046,0,0,0-.876-.292.885.885,0,0,0-.746.372,1.207,1.207,0,0,0-.176.691q0,10,0,20a1.13,1.13,0,0,0,.285.809,1.105,1.105,0,0,0,.869.231.855.855,0,0,0,.757-.456,2.116,2.116,0,0,0,.117-.894q0-3.727,0-7.455c2.053,0,4.1,0,6.158,0,.005,2.46,0,4.92,0,7.38a7.079,7.079,0,0,1-.392,2.474,4.363,4.363,0,0,1-1.38,1.92,5.836,5.836,0,0,1-2.255,1.052,12.455,12.455,0,0,1-3.162.309,13.693,13.693,0,0,1-3.274-.4,6.241,6.241,0,0,1-2.707-1.4,4.414,4.414,0,0,1-1.085-1.559,6.11,6.11,0,0,1-.427-2.472V11.882a6.836,6.836,0,0,1,.141-1.646,4.556,4.556,0,0,1,1.235-2.326,5.46,5.46,0,0,1,1.86-1.2Z" fill="#fff"/>
      <path id="Path_365" data-name="Path 365" d="M445.267,6.211c.006-.024.019-.072.025-.1,2.678.012,5.355,0,8.033,0a9.547,9.547,0,0,1,3.127.4,4.586,4.586,0,0,1,1.9,1.158,4.808,4.808,0,0,1,1.213,2.6,9.559,9.559,0,0,1,.115,1.8v6.7a8.953,8.953,0,0,1-.23,2.453,4.448,4.448,0,0,1-1.191,2.146,4.261,4.261,0,0,1-1.278.863,7.16,7.16,0,0,1-2.169.546,19.911,19.911,0,0,1-2.149.058c-.3,0-.6,0-.893,0-.021.582,0,1.166-.009,1.748q0,5.014,0,10.028c-2.164,0-4.328.006-6.492,0q0-15.2,0-30.406Zm6.5,4.3c-.01.992,0,1.984,0,2.976,0,2.32-.008,4.64.006,6.959a3.946,3.946,0,0,0,.8-.048,1.424,1.424,0,0,0,1.044-.574,2.289,2.289,0,0,0,.243-1.281V12.534a4.01,4.01,0,0,0-.065-.96,1.185,1.185,0,0,0-.529-.776,2.912,2.912,0,0,0-1.5-.283Z" fill="#fff"/>
      <path id="Path_366" data-name="Path 366" d="M449.193,38.618a1.828,1.828,0,0,1,1.238-.207,1.094,1.094,0,0,1,.895.593,2.945,2.945,0,0,1,.147,1.475c-.323.008-.646.029-.969.029a3.815,3.815,0,0,0-.041-1.119c-.039-.112-.075-.249-.2-.3a.42.42,0,0,0-.455.06.622.622,0,0,0-.114.214,4.528,4.528,0,0,0-.112,1.126c-.026.42-.008.841-.013,1.262a7.574,7.574,0,0,0,.087,1.156.472.472,0,0,0,.264.376.46.46,0,0,0,.532-.132,1.181,1.181,0,0,0,.139-.554,5.292,5.292,0,0,0-.015-.916c.312-.008.623.02.935.013a3.793,3.793,0,0,1-.031,1.275,1.2,1.2,0,0,1-.59.884c-.085.064-.2-.013-.26.1a2.154,2.154,0,0,1-1.345-.112,1.243,1.243,0,0,1-.6-.769,5.939,5.939,0,0,1-.194-1.664,8.928,8.928,0,0,1,.131-1.8,1.594,1.594,0,0,1,.568-1Z" fill="#fff"/>
      <path id="Path_367" data-name="Path 367" d="M460.6,38.508a2.17,2.17,0,0,1,1.142-.081,1.027,1.027,0,0,1,.748.516,2.675,2.675,0,0,1,.2,1.421c-.326-.012-.655.044-.979.006a2.66,2.66,0,0,0-.093-1.112.381.381,0,0,0-.688.023,4.075,4.075,0,0,0-.147,1.25c0,.562-.01,1.125.009,1.687a3.386,3.386,0,0,0,.106.8.373.373,0,0,0,.213.266.539.539,0,0,0,.648-.2,3.014,3.014,0,0,0,.132-1.24c-.181,0-.363,0-.543,0a6.983,6.983,0,0,1-.013-.779c.488,0,.976-.005,1.463,0-.005.9,0,1.809,0,2.714a.218.218,0,0,1-.033.126c-.129-.021-.273.026-.391-.029-.092-.125-.157-.266-.239-.4a.928.928,0,0,1-.633.5,1.709,1.709,0,0,1-1.062-.167,1.422,1.422,0,0,1-.58-.883,7.452,7.452,0,0,1-.154-2.027,5.776,5.776,0,0,1,.221-1.607,1.233,1.233,0,0,1,.677-.8Z" fill="#fff"/>
      <path id="Path_368" data-name="Path 368" d="M465.539,38.547a1.989,1.989,0,0,1,1.123-.136,1.1,1.1,0,0,1,.9.613,2.932,2.932,0,0,1,.132,1.454c-.32.012-.639.027-.958.031a3.418,3.418,0,0,0-.091-1.239.389.389,0,0,0-.614-.118,1.01,1.01,0,0,0-.171.494,12.971,12.971,0,0,0-.058,1.614c0,.459-.011.92.036,1.377a.861.861,0,0,0,.234.615.47.47,0,0,0,.607-.1,1.375,1.375,0,0,0,.143-.669,5.663,5.663,0,0,0-.024-.793,8.129,8.129,0,0,1,.942.021,3.583,3.583,0,0,1,.022.847,1.636,1.636,0,0,1-.46,1.172,1.518,1.518,0,0,1-1.076.277,1.433,1.433,0,0,1-.948-.326,1.7,1.7,0,0,1-.457-.97,10,10,0,0,1-.1-1.91,5.755,5.755,0,0,1,.2-1.46,1.291,1.291,0,0,1,.611-.794Z" fill="#fff"/>
      <path id="Path_369" data-name="Path 369" d="M469.593,38.391a1.571,1.571,0,0,1,1.1.288,1.762,1.762,0,0,1,.513,1.012,7.312,7.312,0,0,1,.12,1.528,7.621,7.621,0,0,1-.112,1.478,1.862,1.862,0,0,1-.473,1,1.43,1.43,0,0,1-.96.315,1.716,1.716,0,0,1-.958-.2,1.334,1.334,0,0,1-.528-.783,6.032,6.032,0,0,1-.187-1.572,7.874,7.874,0,0,1,.15-1.914,1.59,1.59,0,0,1,.507-.886,1.4,1.4,0,0,1,.828-.262Zm-.164.762a1,1,0,0,0-.2.574,11.243,11.243,0,0,0-.047,1.147,16.867,16.867,0,0,0,.054,1.84.737.737,0,0,0,.263.558.541.541,0,0,0,.456-.011.672.672,0,0,0,.228-.472,10.69,10.69,0,0,0,.06-1.57,11.787,11.787,0,0,0-.054-1.573,1.008,1.008,0,0,0-.146-.44c-.055-.089-.17-.11-.234-.191-.124.054-.283.031-.381.137Z" fill="#fff"/>
      <path id="Path_370" data-name="Path 370" d="M445.272,38.474c.47,0,.94,0,1.41,0a1.643,1.643,0,0,1,.993.312,1.522,1.522,0,0,1,.473,1.094,2.613,2.613,0,0,1-.211,1.351,1.109,1.109,0,0,1-.785.555,5.275,5.275,0,0,1-.845.052c.008.649,0,1.3,0,1.948,0,.029-.009.088-.013.118-.235.014-.471,0-.707.006a.862.862,0,0,1-.329-.028c.016-1.8,0-3.606.011-5.408Zm1.037.725c.005.627-.005,1.255.005,1.882a.769.769,0,0,0,.542-.106,1.171,1.171,0,0,0,.224-.784,1.526,1.526,0,0,0-.156-.813.589.589,0,0,0-.615-.178Z" fill="#fff"/>
      <path id="Path_371" data-name="Path 371" d="M452,38.473c.447.006.895-.007,1.343.008.206,1.246.415,2.492.638,3.735q.294-1.65.586-3.3a2.863,2.863,0,0,1,.092-.436c.439-.013.878,0,1.318-.006,0,1.812,0,3.623,0,5.435-.315,0-.63,0-.946,0-.009-1.309,0-2.618,0-3.926-.055.451-.083.906-.157,1.355-.136.855-.3,1.707-.435,2.562-.3.017-.594.009-.891,0-.175-1.1-.392-2.195-.547-3.3-.029-.182-.028-.367-.051-.55-.02.528.01,1.056,0,1.584,0,.749-.007,1.5.005,2.245a.675.675,0,0,1-.26.026c-.232,0-.463,0-.694,0-.006-1.811,0-3.622,0-5.433Z" fill="#fff"/>
      <path id="Path_372" data-name="Path 372" d="M457.379,38.475a7.83,7.83,0,0,1,.874-.02c.076.005.211-.028.21.086.317,1.491.627,2.982.942,4.473.055.3.139.589.174.889-.357.017-.715,0-1.072.01-.084-.329-.131-.665-.2-1-.274,0-.548,0-.822,0-.072.331-.091.676-.194,1-.318-.012-.636,0-.954-.005.033-.353.131-.7.187-1.047C456.813,41.4,457.1,39.939,457.379,38.475Zm.252,3.694c.178,0,.355,0,.534,0-.09-.75-.2-1.5-.283-2.249C457.834,40.671,457.689,41.416,457.631,42.169Z" fill="#fff"/>
      <path id="Path_373" data-name="Path 373" d="M471.743,38.473c.447,0,.893,0,1.34,0,.216,1.245.423,2.493.641,3.738.1-.54.2-1.08.29-1.622l.034-.038a2.4,2.4,0,0,1,.061-.485c.094-.532.18-1.066.29-1.595h1.32q0,2.718,0,5.437c-.315,0-.63,0-.945,0-.01-.946,0-1.892,0-2.839.008-.363.017-.728,0-1.091-.054.388-.062.783-.125,1.171-.141.918-.314,1.83-.466,2.746a6.543,6.543,0,0,1-.724.018c-.056-.008-.135.025-.166-.038-.142-.835-.292-1.668-.43-2.5a12.434,12.434,0,0,1-.17-1.386c0,1.3,0,2.6.005,3.9a8.285,8.285,0,0,1-.952.025c-.008-1.813,0-3.626,0-5.438Z" fill="#fff"/>
      <path id="Path_374" data-name="Path 374" d="M463.27,42.722c.376-.005.752-.006,1.129,0,0,.385-.01.771.005,1.156a.37.37,0,0,1-.209.031c-.309-.007-.618.011-.927-.01,0-.393,0-.786,0-1.178Z" fill="#fff"/>
    </g>
  </g>
</svg>
